HIERARCHY
ROOT Hips
{
	OFFSET -0.001795 -0.223333 0.028219
	CHANNELS 6 Xposition Yposition Zposition Zrotation Yrotation Xrotation 
	JOINT LeftUpLeg
	{
		OFFSET 0.069520 -0.091406 -0.006815
		CHANNELS 3 Zrotation Yrotation Xrotation
		JOINT LeftLeg
		{
			OFFSET 0.034277 -0.375199 -0.004496
			CHANNELS 3 Zrotation Yrotation Xrotation
			JOINT LeftFoot
			{
				OFFSET -0.013596 -0.397961 -0.043693
				CHANNELS 3 Zrotation Yrotation Xrotation
				JOINT LeftToe
				{
					OFFSET 0.026358 -0.055791 0.119288
					CHANNELS 3 Zrotation Yrotation Xrotation
					End Site
					{
						OFFSET 0.000000 0.000000 0.000000
					}
				}
			}
		}
	}
	JOINT RightUpLeg
	{
		OFFSET -0.067670 -0.090522 -0.004320
		CHANNELS 3 Zrotation Yrotation Xrotation
		JOINT RightLeg
		{
			OFFSET -0.038290 -0.382569 -0.008850
			CHANNELS 3 Zrotation Yrotation Xrotation
			JOINT RightFoot
			{
				OFFSET 0.015774 -0.398415 -0.042312
				CHANNELS 3 Zrotation Yrotation Xrotation
				JOINT RightToe
				{
					OFFSET -0.025372 -0.048144 0.123348
					CHANNELS 3 Zrotation Yrotation Xrotation
					End Site
					{
						OFFSET 0.000000 0.000000 0.000000
					}
				}
			}
		}
	}
	JOINT Spine
	{
		OFFSET -0.002533 0.108963 -0.026696
		CHANNELS 3 Zrotation Yrotation Xrotation
		JOINT Spine1
		{
			OFFSET 0.005487 0.135180 0.001092
			CHANNELS 3 Zrotation Yrotation Xrotation
			JOINT Spine2
			{
				OFFSET 0.001457 0.052922 0.025425
				CHANNELS 3 Zrotation Yrotation Xrotation
				JOINT Neck
				{
					OFFSET -0.002778 0.213870 -0.042857
					CHANNELS 3 Zrotation Yrotation Xrotation
					JOINT Head
					{
						OFFSET 0.005152 0.064970 0.051349
						CHANNELS 3 Zrotation Yrotation Xrotation
						End Site
						{
							OFFSET 0.000000 0.000000 0.000000
						}
					}
				}
				JOINT LeftShoulder
				{
					OFFSET 0.078845 0.121749 -0.034090
					CHANNELS 3 Zrotation Yrotation Xrotation
					JOINT LeftArm
					{
						OFFSET 0.090977 0.030469 -0.008868
						CHANNELS 3 Zrotation Yrotation Xrotation
						JOINT LeftForeArm
						{
							OFFSET 0.259612 -0.012772 -0.027456
							CHANNELS 3 Zrotation Yrotation Xrotation
							JOINT LeftHand
							{
								OFFSET 0.249234 0.008986 -0.001171
								CHANNELS 3 Zrotation Yrotation Xrotation
								End Site
								{
									OFFSET 0.000000 0.000000 0.000000
								}
							}
						}
					}
				}
				JOINT RightShoulder
				{
					OFFSET -0.081759 0.118833 -0.038615
					CHANNELS 3 Zrotation Yrotation Xrotation
					JOINT RightArm
					{
						OFFSET -0.096012 0.032551 -0.009143
						CHANNELS 3 Zrotation Yrotation Xrotation
						JOINT RightForeArm
						{
							OFFSET -0.253742 -0.013329 -0.021401
							CHANNELS 3 Zrotation Yrotation Xrotation
							JOINT RightHand
							{
								OFFSET -0.255298 0.007772 -0.005559
								CHANNELS 3 Zrotation Yrotation Xrotation
								End Site
								{
									OFFSET 0.000000 0.000000 0.000000
								}
							}
						}
					}
				}
			}
		}
	}
}
MOTION
Frames: 17
Frame Time: 0.050000
-0.007836 0.907994 0.049132 -3.137841 -4.717697 -1.211656 10.169254 0.065481 -13.405765 -7.403477 1.829097 21.120230 6.868197 13.972629 -3.183261 0.000000 0.000000 0.000000 -5.099995 1.008800 -14.338351 6.263341 -0.697429 20.243367 -6.566625 -16.918899 5.851260 0.000000 0.000000 0.000000 -4.572584 0.252341 24.795673 5.388259 -0.922421 -22.316285 2.998051 1.472195 23.071819 -0.821515 2.583112 -42.522342 0.000000 0.000000 0.000000 -25.087528 -18.240699 9.931042 -48.007426 -50.537893 13.981227 17.549638 -45.860843 -4.643977 0.000000 0.000000 0.000000 16.807875 27.390659 12.759322 42.534515 46.571970 10.982722 -15.674955 38.826444 -3.717544 0.000000 0.000000 0.000000 
-0.007633 0.909579 0.048550 -3.369305 -4.686262 -0.284828 10.379150 0.083195 -14.680907 -7.471711 1.858089 21.244227 7.000897 14.310345 -2.712846 0.000000 0.000000 0.000000 -4.846553 1.108524 -15.270197 6.178171 -0.677440 20.078113 -6.471859 -16.806040 6.318314 0.000000 0.000000 0.000000 -4.959530 0.370226 25.613863 5.420519 -0.921966 -22.282853 3.099872 1.477076 23.249478 -0.502702 2.452067 -42.354686 0.000000 0.000000 0.000000 -24.679195 -18.520681 10.050306 -47.552965 -50.784367 13.917446 18.613342 -44.671328 -4.942287 0.000000 0.000000 0.000000 15.968628 27.748473 12.810083 43.044924 48.112820 11.806287 -16.926447 39.113600 -4.134507 0.000000 0.000000 0.000000 
-0.006808 0.912627 0.047241 -3.607499 -4.628793 0.919320 10.527746 0.088439 -15.823707 -7.418156 1.796788 20.441720 6.876128 14.149797 -1.764022 0.000000 0.000000 0.000000 -4.598433 1.232461 -16.446266 6.033135 -0.644570 19.396163 -6.320610 -16.660927 7.356187 0.000000 0.000000 0.000000 -5.179303 0.452355 26.238852 5.209869 -0.862004 -22.173583 3.148099 1.337851 23.373545 -0.373691 2.378810 -42.270220 0.000000 0.000000 0.000000 -23.625017 -18.986363 10.229526 -47.295103 -51.771291 14.319134 19.915412 -42.532042 -5.171001 0.000000 0.000000 0.000000 15.177481 28.359769 12.972700 43.519409 49.453122 12.563468 -18.141211 39.096204 -4.514103 0.000000 0.000000 0.000000 
-0.005259 0.915354 0.045743 -3.704355 -4.539484 2.120126 10.546730 0.076465 -16.958721 -7.294327 1.715738 19.675077 6.868400 14.235522 -0.845075 0.000000 0.000000 0.000000 -4.637331 1.321104 -17.542958 5.883122 -0.613911 18.367312 -6.329514 -16.788679 8.067562 0.000000 0.000000 0.000000 -5.408648 0.543301 26.945074 5.156833 -0.812678 -22.443847 3.003678 1.328389 23.736814 -0.167700 2.271840 -41.747424 0.000000 0.000000 0.000000 -22.766557 -19.576287 10.459514 -46.265564 -52.823089 14.380155 21.335916 -40.228580 -5.385714 0.000000 0.000000 0.000000 14.417235 28.753635 13.064023 43.083860 50.931260 12.991071 -18.308167 38.978602 -4.527084 0.000000 0.000000 0.000000 
-0.003041 0.916647 0.044421 -3.678155 -4.571584 3.135482 10.453311 0.052360 -17.654507 -7.194910 1.640297 18.682456 6.791048 14.180938 0.105932 0.000000 0.000000 0.000000 -4.878968 1.382585 -18.585978 5.884028 -0.614733 17.643009 -6.123011 -16.512483 8.824422 0.000000 0.000000 0.000000 -5.558375 0.624438 27.665080 4.966118 -0.770037 -22.259904 2.954265 1.222914 23.826989 -0.405166 2.368220 -42.217687 0.000000 0.000000 0.000000 -21.540114 -19.689689 10.382751 -45.431442 -54.049341 14.628926 22.656974 -38.713716 -5.614185 0.000000 0.000000 0.000000 13.064744 29.195325 12.988062 43.484428 52.613718 13.896442 -18.133722 38.928662 -4.447313 0.000000 0.000000 0.000000 
-0.000585 0.917416 0.043453 -3.611002 -4.195601 4.058750 10.066364 -0.036199 -18.516421 -7.119561 1.573500 18.205445 6.654417 13.937245 0.318854 0.000000 0.000000 0.000000 -5.134766 1.396876 -19.238071 5.802372 -0.614931 16.814147 -6.003663 -16.321592 9.178988 0.000000 0.000000 0.000000 -5.698264 0.673151 28.376617 4.933737 -0.735125 -22.375429 2.741215 1.036713 23.897915 -0.731651 2.472869 -41.766943 0.000000 0.000000 0.000000 -20.749164 -20.042961 10.465894 -44.147708 -54.960933 14.481990 23.802498 -37.222263 -5.766991 0.000000 0.000000 0.000000 11.711567 29.532749 12.877383 43.689582 53.837752 14.537251 -17.991030 39.259506 -4.424096 0.000000 0.000000 0.000000 
0.001674 0.917599 0.042882 -3.495684 -3.795090 4.722321 9.850035 -0.098011 -19.291365 -6.956322 1.483182 17.755785 6.615457 13.921842 0.851098 0.000000 0.000000 0.000000 -5.489356 1.395091 -19.968418 5.840380 -0.644044 16.414077 -6.016130 -16.389337 9.695494 0.000000 0.000000 0.000000 -5.834725 0.715623 29.159824 4.998139 -0.736483 -22.386923 2.706471 1.031729 23.821051 -1.022513 2.622343 -42.071356 0.000000 0.000000 0.000000 -20.471042 -20.226778 10.470630 -43.320413 -55.747461 14.477772 24.444066 -36.290055 -5.832907 0.000000 0.000000 0.000000 10.637233 29.680319 12.761888 44.039907 55.231196 15.377413 -17.698076 39.337675 -4.308957 0.000000 0.000000 0.000000 
0.003456 0.917699 0.042769 -3.460038 -3.412735 5.352790 9.591823 -0.168419 -19.980814 -6.762522 1.394180 17.437035 6.407351 13.558377 1.209641 0.000000 0.000000 0.000000 -5.528851 1.402115 -20.247956 5.627474 -0.609594 15.838044 -5.921159 -16.230019 10.037764 0.000000 0.000000 0.000000 -5.863790 0.715754 29.587879 5.096826 -0.755616 -22.286596 2.397957 1.105491 23.881871 -1.316506 2.749006 -41.456882 0.000000 0.000000 0.000000 -19.923822 -20.258041 10.332060 -42.881807 -56.174594 14.456403 25.599494 -36.041897 -6.158847 0.000000 0.000000 0.000000 9.650552 29.727766 12.626180 44.900779 56.326717 16.356172 -18.323988 39.933892 -4.555289 0.000000 0.000000 0.000000 
0.004831 0.918277 0.042909 -3.325604 -2.800927 5.814968 9.354439 -0.249556 -20.625156 -6.696029 1.333205 17.227694 6.383518 13.565808 1.562797 0.000000 0.000000 0.000000 -5.803721 1.378753 -20.769548 5.726873 -0.660200 15.743732 -6.009758 -16.393896 10.453903 0.000000 0.000000 0.000000 -5.875768 0.689551 30.181505 4.953751 -0.706068 -22.307556 2.396128 1.209105 23.965215 -1.565201 2.905459 -41.720931 0.000000 0.000000 0.000000 -19.629154 -20.534018 10.326483 -42.664354 -56.583157 14.529608 25.895199 -35.881874 -6.243363 0.000000 0.000000 0.000000 8.787814 29.724881 12.508459 45.360433 57.242320 17.101095 -19.853949 40.305912 -5.087050 0.000000 0.000000 0.000000 
0.006083 0.919103 0.043152 -3.210079 -2.347498 6.166278 9.182597 -0.310742 -20.819120 -6.714521 1.291543 16.611532 6.367408 13.633099 2.269441 0.000000 0.000000 0.000000 -5.938639 1.353488 -20.903062 5.604746 -0.649132 15.458214 -5.932546 -16.271620 11.032191 0.000000 0.000000 0.000000 -5.888206 0.666734 30.466056 4.984634 -0.699091 -22.356394 2.122523 1.382416 24.052880 -1.602829 2.969927 -41.669889 0.000000 0.000000 0.000000 -19.485508 -20.404588 10.123069 -42.790777 -56.559178 14.548760 25.705392 -36.275511 -6.271399 0.000000 0.000000 0.000000 8.577030 29.512395 12.448072 45.379046 57.827346 17.445567 -20.928732 40.601581 -5.462223 0.000000 0.000000 0.000000 
0.007513 0.920724 0.043453 -3.117512 -1.969445 6.410023 8.879874 -0.386914 -20.700396 -6.647900 1.226143 15.811045 6.250912 13.485640 2.786643 0.000000 0.000000 0.000000 -6.005467 1.332519 -20.932841 5.490935 -0.637337 15.130462 -5.802154 -16.038233 11.457452 0.000000 0.000000 0.000000 -5.842214 0.628800 30.699173 4.835332 -0.664051 -22.175415 1.989137 1.646192 24.056297 -1.604221 3.018471 -41.299018 0.000000 0.000000 0.000000 -19.089093 -20.261345 9.857865 -43.857093 -56.416731 14.981197 25.027628 -37.033666 -6.207878 0.000000 0.000000 0.000000 8.106612 29.309576 12.323023 45.357920 58.451181 17.818974 -23.014493 41.049996 -6.228305 0.000000 0.000000 0.000000 
0.009229 0.922339 0.044036 -2.992422 -1.738312 6.713453 8.436514 -0.475617 -20.529151 -6.444823 1.136187 14.996050 6.201702 13.474208 3.352532 0.000000 0.000000 0.000000 -6.172617 1.310891 -21.077895 5.575207 -0.664465 14.751307 -5.887967 -16.233957 12.065735 0.000000 0.000000 0.000000 -5.884013 0.626355 30.672321 4.709804 -0.625328 -22.185888 1.818844 1.810478 24.257723 -1.495574 3.008076 -41.120612 0.000000 0.000000 0.000000 -18.723862 -20.250058 9.725204 -44.627564 -56.367632 15.303602 24.606508 -37.416421 -6.144010 0.000000 0.000000 0.000000 7.657268 29.077919 12.163726 45.565326 58.786152 18.133262 -24.257640 41.391032 -6.694631 0.000000 0.000000 0.000000 
0.011202 0.923425 0.044874 -2.779376 -1.377725 6.879549 7.943202 -0.570024 -20.167786 -6.460470 1.090372 13.896259 6.168071 13.480849 3.785184 0.000000 0.000000 0.000000 -6.406246 1.258661 -20.977947 5.353802 -0.625614 14.459233 -5.974939 -16.380328 12.384747 0.000000 0.000000 0.000000 -5.818575 0.572489 30.450971 4.530226 -0.588020 -21.999115 1.727484 1.813378 24.198193 -1.665526 3.092795 -40.870082 0.000000 0.000000 0.000000 -18.571660 -19.771616 9.387435 -46.285057 -56.262430 16.058616 23.527513 -38.583525 -5.972332 0.000000 0.000000 0.000000 7.549754 28.703012 12.011521 45.845455 58.385529 18.110817 -24.773271 42.263259 -7.018611 0.000000 0.000000 0.000000 
0.013112 0.923849 0.045684 -2.678780 -1.184687 6.942687 7.427988 -0.650478 -19.709677 -6.234571 1.002813 12.960989 6.096783 13.351730 3.771787 0.000000 0.000000 0.000000 -6.633471 1.210901 -20.813329 5.196733 -0.595574 14.088938 -5.968198 -16.355950 12.513381 0.000000 0.000000 0.000000 -5.805394 0.550704 30.289752 4.571744 -0.594214 -21.972313 1.634628 2.239886 24.400562 -1.870313 3.240877 -40.846838 0.000000 0.000000 0.000000 -18.758491 -19.543299 9.146573 -47.939469 -55.725411 16.540952 22.449473 -39.970927 -5.829399 0.000000 0.000000 0.000000 7.516415 28.191769 11.861095 46.636575 57.998990 18.392690 -25.109692 43.059381 -7.233072 0.000000 0.000000 0.000000 
0.014642 0.924386 0.046116 -2.449602 -0.870960 6.961550 7.006768 -0.717165 -19.260750 -6.215560 0.963441 12.101165 6.043799 13.281987 3.920307 0.000000 0.000000 0.000000 -7.000483 1.140881 -20.741402 5.266035 -0.622908 13.892717 -6.062570 -16.482619 12.446237 0.000000 0.000000 0.000000 -5.772390 0.512803 30.257630 4.398481 -0.548623 -21.953520 1.683221 2.401266 24.405627 -2.011933 3.337806 -40.803521 0.000000 0.000000 0.000000 -19.018027 -19.559727 9.092936 -49.056269 -55.259381 16.823986 21.606243 -40.909128 -5.681330 0.000000 0.000000 0.000000 7.469400 27.867157 11.755736 46.651364 57.460888 18.164009 -24.705682 43.641959 -7.168931 0.000000 0.000000 0.000000 
0.015657 0.924484 0.046104 -2.352843 -0.479716 7.076482 6.777607 -0.771250 -19.348611 -6.229242 0.946373 11.869626 5.970950 13.166627 3.957609 0.000000 0.000000 0.000000 -7.211382 1.096359 -20.781308 5.326776 -0.649553 13.649904 -6.200055 -16.695869 12.564884 0.000000 0.000000 0.000000 -5.581455 0.423332 30.374237 4.224021 -0.498799 -21.903016 1.672297 2.422522 24.284826 -2.500941 3.555831 -40.934465 0.000000 0.000000 0.000000 -19.322484 -19.436863 8.997969 -49.961319 -54.774751 17.003969 20.378670 -42.079136 -5.397577 0.000000 0.000000 0.000000 7.313719 27.650620 11.659116 47.164783 57.048515 18.271615 -24.524477 44.043806 -7.156993 0.000000 0.000000 0.000000 
0.016196 0.924359 0.045732 -2.337204 -0.133764 7.063726 6.649154 -0.801873 -19.280044 -6.125256 0.906435 11.630037 5.908716 13.038286 3.799348 0.000000 0.000000 0.000000 -7.411859 1.053948 -20.854468 5.586760 -0.718851 13.421585 -6.573499 -17.333077 12.697119 0.000000 0.000000 0.000000 -5.504664 0.367873 30.501179 4.215801 -0.493223 -21.875185 1.713861 2.525010 24.165779 -2.707821 3.669664 -40.836853 0.000000 0.000000 0.000000 -19.753254 -19.734222 9.126851 -50.254166 -54.009174 16.734951 19.873644 -43.074620 -5.366143 0.000000 0.000000 0.000000 7.693700 27.765540 11.845907 47.015777 56.299218 17.841541 -23.927086 44.529790 -7.004999 0.000000 0.000000 0.000000 
